<?xml version="1.0" encoding="UTF-8"?>
<!DOCTYPE svg PUBLIC "-//W3C//DTD SVG 1.1//EN" "http://www.w3.org/Graphics/SVG/1.1/DTD/svg11.dtd">
<!-- Creator: CorelDRAW -->
<svg xmlns="http://www.w3.org/2000/svg" xml:space="preserve" width="210mm" height="297mm" version="1.1" style="shape-rendering:geometricPrecision; text-rendering:geometricPrecision; image-rendering:optimizeQuality; fill-rule:evenodd; clip-rule:evenodd"
viewBox="0 0 21000 29700"
 xmlns:xlink="http://www.w3.org/1999/xlink"
 xmlns:xodm="http://www.corel.com/coreldraw/odm/2003">
 <defs>
  <style type="text/css">
   <![CDATA[
    .str0 {stroke:#FEFEFE;stroke-width:20;stroke-miterlimit:22.9256}
    .fil1 {fill:#FF8C01}
    .fil0 {fill:#FFB667}
    .fil2 {fill:#FF8C01;fill-rule:nonzero}
   ]]>
  </style>
 </defs>
 <g id="Layer_x0020_1">
  <metadata id="CorelCorpID_0Corel-Layer"/>
  <path class="fil0" d="M8935.28 17476.64l708.7 48.57c5.76,1.29 11.26,3.24 16.35,4.62l31.07 11.52c-492.3,18.17 -964.89,77.45 -1467.76,84.06 -331.76,4.36 -773.16,-41.04 -1059.5,91.89 -88.36,41.01 -204.14,112.27 -229.7,178.26 486,139.42 1235.36,237.65 1772.25,231.68 -35.13,73.94 -166.09,188.57 -218.38,217.99 12.69,67.56 89,187.02 134.33,226.54 95.76,83.48 797.74,-61.56 929.84,-81.1 1346.78,-199.18 3121.86,-834.09 4404.52,-1325.15 559.99,-214.39 584.25,-189.15 1191.44,-61.7 70.43,14.78 218.01,42.67 281.03,64.59 126.96,44.15 34.4,245.24 468.81,247.8 264.78,1.55 -66.73,-146.03 554.36,37.82 91.6,27.11 192.31,69.98 278.56,88.36 138.69,29.55 401.05,-130.18 516.6,-207.38 -17.45,-77.25 -13.29,-42.41 -59.17,-98.81l-193.87 -263.82c166.55,-67.98 317.89,-131.19 339.18,-333.33 18.29,-173.68 -50.54,-405.87 -125.94,-537.38 -234.32,-408.67 -600.84,-54.21 -927.88,61.41 -59.85,-122.3 -168.82,-246.82 -235.8,-366.75l128.18 -89.63c637.63,-388.19 1352.68,-825.89 1991.92,-1183.26 484.69,-270.96 593.67,-354.53 1020.04,-672.03 145.38,-108.25 802.73,-670.57 716.15,-995.72 -79.82,-299.8 -1057.74,-328.38 -1395.11,-282.49 -734.26,99.86 -1658.69,744.23 -2294.87,1111.81 -709.07,409.69 -1438.66,865.22 -2139.71,1265.03 -350.31,199.77 -702.97,432.07 -1064.38,628.28 -654.32,355.23 -1558.07,1039.29 -2265.15,1137.17 -325.37,45.05 -422.25,-77.69 -634.68,-206.09 -184.82,-111.72 -339.69,-211.49 -524.89,-321.29 -189.13,-112.12 -937.82,-606.65 -1088.6,-631.43 -133.22,-21.91 -237.71,45.74 -335.68,97.44 -286.36,151.09 -183.56,127.26 158.02,742.35l619.72 1080.17z"/>
  <path class="fil1" d="M13718.71 14945.13c-214.95,-184.95 -2044.73,-705.14 -2510.84,-843.93 -286.89,-85.42 -540.1,-189.61 -695.89,-439.15 -187.92,-301.02 -45.68,-671.6 149.68,-812.95 245.26,-177.45 522.6,-245.49 889.38,-255.86 331.91,-9.39 684.13,45.4 940.5,185.3 401.27,218.97 353.48,479 414.92,722.13l2032.54 24.06c27.21,-985.01 -186.54,-1430.44 -745.6,-1870.79 -485.57,-382.47 -1238.22,-558.1 -1994.89,-618.41 -750.44,-59.81 -1689.23,-13.34 -2331.05,269.14 -596.34,262.47 -1076.61,644.17 -1347.58,1268.08 -278.53,641.29 -360.9,1508.34 -19.01,2139.21 392.97,725.13 1803.75,1036.21 2641.02,1280.39 704.8,205.55 440.51,211.61 939.63,-68.99l1637.19 -978.23z"/>
  <path class="fil1" d="M2415.1 20810.6c-452.35,0 -920,-47.8 -1317.75,-194.97 -377.5,-139.68 -592.07,-336.47 -692.44,-691.7l-21.67 -60.68c-1.46,-3.58 -4.08,-10.03 -6.89,-14.63 -102.85,266.48 -11.01,622.7 101.47,847.34 866.56,1730.56 5671.71,398.48 6690.46,66.2 871.4,-284.23 2066.69,-683.53 2898.74,-1064.28 688.76,-315.18 490.12,-218.63 1099.35,-218.63 927.06,0 1511.57,-245.04 2098.45,-680.8 542.56,-402.86 962.73,-1000.45 1119.85,-1677.68l-678.15 291.78c-1453.47,601.07 -2546.4,948.01 -4101.56,1284.28 -160.8,34.78 -226.6,72.65 -364.05,136.12 -1867.34,862.27 -4587.06,1977.65 -6825.81,1977.65z"/>
  <path class="fil2 str0" d="M8486.71 11845.59c-55.98,-2.79 -113.28,-5.71 -171.91,-8.74 -682.52,-33.7 -1211.26,-46.34 -1579.91,-37.91l-450.8 6.33c-288.61,4.2 -442.39,10.53 -457.13,18.94 -82.16,31.61 -124.29,162.22 -124.29,387.61l0 1487.24c0,280.18 58.98,419.2 179.07,419.2 400.23,0 1002.71,-18.96 1807.41,-56.87 26.11,-1.23 50.96,-2.42 74.8,-3.58 22.88,104.15 55.01,206.81 97.59,306.99 195.02,458.97 653.9,756.32 1144.52,972.12 -46.2,83.99 -100.28,137.03 -162.57,137.03 -284.4,0 -69.45,0.91 -646.64,-15.91 -579.31,-16.88 -1013.26,-25.28 -1301.87,-25.28 -530.85,0 -832.08,4.22 -901.61,12.64 -185.37,21.07 -278.06,96.89 -278.06,227.5 0,368.66 10.53,922.69 31.6,1662.09 21.03,737.28 -13.1,1730.37 -86.26,2091.66 -53.55,264.42 -139.54,312.44 -408.17,423.85 -437.13,181.3 -1229.31,388.09 -1744.19,359.28 -72.11,-4.02 576.54,-8643.34 576.54,-9520.99 -12.42,-254.69 783.66,-132.49 937.43,-128.5 646.71,12.64 1244.98,14.74 1794.79,6.32 745.72,-8.44 1693.67,-50.57 2843.85,-126.4 155.89,-12.65 244.35,56.87 265.43,204.33 -3.66,96.76 2.2,237.82 17.52,421.78 -460.23,116.19 -872.43,296.83 -1171.74,523.45 -98.95,74.93 -194.64,160.9 -285.4,255.82z"/>
 </g>
</svg>
